<svg width="147" height="26" viewBox="0 0 147 26" fill="none" xmlns="http://www.w3.org/2000/svg">
<path d="M140.599 19.9139V18.3717L142.594 18.029V2.71699L140.599 2.37428V0.819824H145.005V18.029L147 18.3717V19.9139H140.599Z" fill="#34C0EC"/>
<path d="M131.149 20.1711C129.77 20.1711 128.722 19.8365 128.004 19.1674C127.286 18.4901 126.927 17.5395 126.927 16.3155C126.927 15.4751 127.155 14.7448 127.612 14.1246C128.077 13.4963 128.746 13.0108 129.62 12.6681C130.493 12.3172 131.537 12.1418 132.753 12.1418H135.115V10.8443C135.115 10.0447 134.87 9.42453 134.381 8.9839C133.899 8.54327 133.218 8.32295 132.337 8.32295C131.782 8.32295 131.3 8.39231 130.892 8.53103C130.484 8.66159 130.113 8.84518 129.779 9.08182L129.522 10.93H127.661V7.89456C128.257 7.41313 128.95 7.05001 129.742 6.80522C130.533 6.55226 131.411 6.42578 132.373 6.42578C133.981 6.42578 135.242 6.8093 136.156 7.57632C137.069 8.34335 137.526 9.44085 137.526 10.8688V17.2458C137.526 17.4171 137.526 17.5844 137.526 17.7476C137.535 17.9108 137.547 18.074 137.563 18.2372L138.848 18.3718V19.914H135.384C135.311 19.555 135.254 19.2327 135.213 18.9471C135.172 18.6615 135.144 18.3759 135.127 18.0903C134.662 18.686 134.079 19.1837 133.377 19.5836C132.684 19.9752 131.941 20.1711 131.149 20.1711ZM131.504 18.1515C132.304 18.1515 133.034 17.9598 133.695 17.5762C134.356 17.1927 134.83 16.7317 135.115 16.1931V13.7941H132.667C131.557 13.7941 130.725 14.0593 130.17 14.5897C129.615 15.1201 129.338 15.7117 129.338 16.3645C129.338 16.9439 129.518 17.3886 129.877 17.6986C130.236 18.0006 130.778 18.1515 131.504 18.1515Z" fill="#34C0EC"/>
<path d="M119.534 20.1711C118.334 20.1711 117.29 19.8936 116.401 19.3388C115.511 18.7757 114.822 17.9965 114.332 17.001C113.842 16.0055 113.598 14.8549 113.598 13.5493V13.0353C113.598 11.7787 113.834 10.6526 114.308 9.65709C114.781 8.66159 115.462 7.87416 116.352 7.29481C117.241 6.71546 118.302 6.42578 119.534 6.42578C120.603 6.42578 121.537 6.60122 122.337 6.95209C123.145 7.30297 123.822 7.7844 124.369 8.39639L124.43 11.5787H122.545L122.129 9.26542C121.851 8.97982 121.505 8.75134 121.088 8.57999C120.672 8.40863 120.183 8.32295 119.62 8.32295C118.902 8.32295 118.269 8.53511 117.722 8.95942C117.184 9.38373 116.764 9.95084 116.462 10.6608C116.16 11.3707 116.009 12.1622 116.009 13.0353V13.5493C116.009 14.5122 116.148 15.3486 116.425 16.0585C116.711 16.7684 117.115 17.3192 117.637 17.7109C118.167 18.0944 118.795 18.2861 119.522 18.2861C120.338 18.2861 121.015 18.0618 121.554 17.613C122.092 17.1642 122.423 16.5481 122.545 15.7648H124.711L124.736 15.8382C124.695 16.5971 124.471 17.307 124.063 17.9679C123.655 18.6289 123.071 19.1633 122.312 19.5713C121.562 19.9712 120.636 20.1711 119.534 20.1711Z" fill="#34C0EC"/>
<path d="M105.482 19.9139V18.3717L107.478 18.029V8.56762L105.482 8.22491V6.67045H109.889V18.029L111.884 18.3717V19.9139H105.482ZM107.355 3.40242V0.819824H109.889V3.40242H107.355Z" fill="#34C0EC"/>
<path d="M101.309 20.1222C100.33 20.1222 99.5506 19.8366 98.9713 19.2654C98.4001 18.6861 98.1145 17.764 98.1145 16.4992V8.45767H96.0215V6.67066H98.1145V3.47607H100.526V6.67066H103.402V8.45767H100.526V16.4992C100.526 17.1357 100.652 17.6049 100.905 17.9068C101.158 18.2087 101.497 18.3597 101.921 18.3597C102.207 18.3597 102.525 18.3352 102.876 18.2862C103.227 18.2291 103.5 18.1802 103.696 18.1394L104.026 19.7183C103.675 19.8244 103.243 19.9182 102.729 19.9998C102.223 20.0814 101.75 20.1222 101.309 20.1222Z" fill="#34C0EC"/>
<path d="M89.6934 20.1711C88.4694 20.1711 87.4046 19.8936 86.4988 19.3388C85.5931 18.7757 84.8913 17.9965 84.3936 17.001C83.904 16.0055 83.6592 14.8549 83.6592 13.5493V13.0108C83.6592 11.7542 83.9162 10.6322 84.4303 9.64485C84.9525 8.64935 85.642 7.866 86.4988 7.29481C87.3638 6.71546 88.3062 6.42578 89.3262 6.42578C90.5175 6.42578 91.5131 6.67058 92.3127 7.16017C93.1205 7.64976 93.7285 8.33927 94.1365 9.2287C94.5444 10.11 94.7484 11.1503 94.7484 12.3498V13.8553H86.1561L86.1194 13.9165C86.1357 14.7652 86.2826 15.52 86.56 16.1809C86.8456 16.8337 87.2536 17.3478 87.784 17.7231C88.3144 18.0985 88.9509 18.2861 89.6934 18.2861C90.5094 18.2861 91.2234 18.1719 91.8354 17.9434C92.4555 17.7068 92.99 17.3845 93.4388 16.9765L94.3812 18.5432C93.908 19.0001 93.2797 19.3877 92.4963 19.706C91.7211 20.016 90.7868 20.1711 89.6934 20.1711ZM86.2295 11.9704H92.3372V11.6522C92.3372 11.0157 92.223 10.4486 91.9945 9.95084C91.7742 9.44493 91.4396 9.04918 90.9908 8.76358C90.5502 8.46983 89.9953 8.32295 89.3262 8.32295C88.7877 8.32295 88.2981 8.48207 87.8574 8.8003C87.4168 9.11038 87.0537 9.53469 86.7681 10.0732C86.4825 10.6118 86.2948 11.2238 86.2051 11.9092L86.2295 11.9704Z" fill="#34C0EC"/>
<path d="M67.4414 19.9139V18.3717L69.4365 18.029V2.71699L67.4414 2.37428V0.819824H71.8477V8.43298C72.3047 7.79651 72.8636 7.30284 73.5246 6.95197C74.1855 6.60109 74.9199 6.42565 75.7278 6.42565C77.1476 6.42565 78.2492 6.84997 79.0325 7.69859C79.8158 8.54722 80.2075 9.8528 80.2075 11.6153V18.029L82.2026 18.3717V19.9139H75.8012V18.3717L77.7963 18.029V11.5909C77.7963 10.4974 77.5596 9.6896 77.0864 9.16737C76.6213 8.64514 75.9236 8.38402 74.9934 8.38402C74.3324 8.38402 73.7286 8.54314 73.1819 8.86137C72.6433 9.17145 72.1986 9.59576 71.8477 10.1343V18.029L73.8428 18.3717V19.9139H67.4414Z" fill="#34C0EC"/>
<path d="M63.4878 20.1222C62.5086 20.1222 61.7293 19.8366 61.15 19.2654C60.5788 18.6861 60.2932 17.764 60.2932 16.4992V8.45767H58.2002V6.67066H60.2932V3.47607H62.7044V6.67066H65.5808V8.45767H62.7044V16.4992C62.7044 17.1357 62.8309 17.6049 63.0839 17.9068C63.3368 18.2087 63.6755 18.3597 64.0998 18.3597C64.3854 18.3597 64.7036 18.3352 65.0545 18.2862C65.4054 18.2291 65.6787 18.1802 65.8746 18.1394L66.205 19.7183C65.8542 19.8244 65.4217 19.9182 64.9076 19.9998C64.4017 20.0814 63.9284 20.1222 63.4878 20.1222Z" fill="#34C0EC"/>
<path d="M51.0398 20.1711C49.8158 20.1711 48.7591 19.8855 47.8697 19.3143C46.9884 18.7349 46.3071 17.9394 45.8257 16.9275C45.3442 15.9075 45.1035 14.7448 45.1035 13.4392V13.1699C45.1035 11.8643 45.3442 10.7056 45.8257 9.69381C46.3071 8.67382 46.9884 7.87416 47.8697 7.29481C48.7591 6.71546 49.8077 6.42578 51.0153 6.42578C52.2393 6.42578 53.2919 6.71546 54.1732 7.29481C55.0626 7.87416 55.7481 8.66974 56.2295 9.68157C56.7109 10.6934 56.9516 11.8562 56.9516 13.1699V13.4392C56.9516 14.7529 56.7109 15.9198 56.2295 16.9398C55.7481 17.9516 55.0667 18.7431 54.1855 19.3143C53.3042 19.8855 52.2556 20.1711 51.0398 20.1711ZM51.0398 18.2861C51.8068 18.2861 52.4474 18.0781 52.9615 17.6619C53.4837 17.2376 53.8754 16.6623 54.1365 15.9361C54.4058 15.2017 54.5404 14.3694 54.5404 13.4392V13.1699C54.5404 12.2397 54.4058 11.4115 54.1365 10.6852C53.8754 9.95084 53.4837 9.37557 52.9615 8.95942C52.4392 8.53511 51.7905 8.32295 51.0153 8.32295C50.2483 8.32295 49.6037 8.53511 49.0815 8.95942C48.5592 9.37557 48.1675 9.95084 47.9064 10.6852C47.6453 11.4115 47.5148 12.2397 47.5148 13.1699V13.4392C47.5148 14.3694 47.6453 15.2017 47.9064 15.9361C48.1675 16.6623 48.5592 17.2376 49.0815 17.6619C49.6118 18.0781 50.2646 18.2861 51.0398 18.2861Z" fill="#34C0EC"/>
<path d="M29.5345 25.0058V23.4513L31.4072 23.1086V8.56775L29.4121 8.22503V6.67058H33.4757L33.696 8.28623C34.1367 7.6824 34.6711 7.22137 35.2995 6.90313C35.9359 6.5849 36.6703 6.42578 37.5026 6.42578C38.596 6.42578 39.5303 6.72362 40.3055 7.31929C41.0807 7.9068 41.6723 8.73502 42.0803 9.80397C42.4883 10.8647 42.6923 12.1091 42.6923 13.5371V13.7941C42.6923 15.0671 42.4842 16.1809 42.0681 17.1356C41.6601 18.0903 41.0726 18.8369 40.3055 19.3755C39.5385 19.9059 38.6164 20.1711 37.5393 20.1711C36.7234 20.1711 36.0053 20.0364 35.3851 19.7672C34.7731 19.4897 34.2509 19.0817 33.8184 18.5432V23.1086L35.9237 23.4513V25.0058H29.5345ZM36.7927 18.2861C37.9351 18.2861 38.8 17.87 39.3875 17.0377C39.9751 16.2054 40.2688 15.1242 40.2688 13.7941V13.5371C40.2688 12.5253 40.1383 11.6359 39.8771 10.8688C39.616 10.0936 39.2244 9.48573 38.7021 9.0451C38.188 8.60447 37.5434 8.38415 36.7682 8.38415C36.0828 8.38415 35.4953 8.53919 35.0057 8.84926C34.5161 9.15934 34.1204 9.58365 33.8184 10.1222V16.5726C34.1204 17.1193 34.512 17.5436 34.9935 17.8455C35.4831 18.1393 36.0828 18.2861 36.7927 18.2861Z" fill="#34C0EC"/>
<path d="M18.1885 25.2624C18.0009 25.2624 17.7561 25.2379 17.4542 25.189C17.1522 25.1482 16.9197 25.1074 16.7565 25.0666L17.0013 23.1694C17.14 23.1857 17.3318 23.198 17.5765 23.2061C17.8213 23.2225 17.9886 23.2306 18.0784 23.2306C18.5925 23.2306 19.0086 23.0348 19.3268 22.6431C19.6532 22.2514 19.9552 21.717 20.2326 21.0397L20.8079 19.6444L16.12 8.42046L14.7002 8.22462V6.67017H20.2571V8.22462L18.6537 8.46942L21.2362 15.0912L21.8605 16.817H21.9339L24.9939 8.46942L23.3048 8.22462V6.67017H28.7515V8.22462L27.3806 8.42046L22.1665 21.9454C21.9217 22.5819 21.6238 23.149 21.273 23.6468C20.9303 24.1527 20.5059 24.5484 20 24.834C19.5023 25.1196 18.8984 25.2624 18.1885 25.2624Z" fill="#34C0EC"/>
<path d="M0 19.9139V18.3717L1.99509 18.029V2.71699L0 2.37428V0.819824H4.40633V8.43298C4.86328 7.79651 5.42223 7.30284 6.08318 6.95197C6.74413 6.60109 7.47852 6.42565 8.28635 6.42565C9.70616 6.42565 10.8077 6.84997 11.5911 7.69859C12.3744 8.54722 12.7661 9.8528 12.7661 11.6153V18.029L14.7612 18.3717V19.9139H8.35979V18.3717L10.3549 18.029V11.5909C10.3549 10.4974 10.1182 9.6896 9.64497 9.16737C9.17985 8.64514 8.48218 8.38402 7.55196 8.38402C6.89101 8.38402 6.28718 8.54314 5.74047 8.86137C5.20192 9.17145 4.7572 9.59576 4.40633 10.1343V18.029L6.40142 18.3717V19.9139H0Z" fill="#34C0EC"/>
</svg>
