<svg xmlns="http://www.w3.org/2000/svg" viewBox="0 0 1200 400">
            <rect width="100%" height="100%" fill="#2F3D44"></rect>
            <g id="network"><circle r="2" fill="#FFFFFF" opacity="0.8" cx="91.22606691679314" cy="104.7977180254167"></circle><circle r="2" fill="#34C0EC" opacity="0.4" cx="132.50151724697233" cy="111.38845543001324"></circle><line stroke="#34C0EC" stroke-width="0.5" opacity="0.3" x1="91.22606691679314" y1="104.7977180254167" x2="132.50151724697233" y2="111.38845543001324"></line><circle r="2" fill="#34C0EC" opacity="0.4" cx="129.89809931589235" cy="126.86103352793808"></circle><line stroke="#34C0EC" stroke-width="0.5" opacity="0.3" x1="91.22606691679314" y1="104.7977180254167" x2="129.89809931589235" y2="126.86103352793808"></line><line stroke="#34C0EC" stroke-width="0.5" opacity="0.3" x1="132.50151724697233" y1="111.38845543001324" x2="129.89809931589235" y2="126.86103352793808"></line><circle r="2" fill="#34C0EC" opacity="0.4" cx="113.88619423404336" cy="130.21381277418487"></circle><line stroke="#34C0EC" stroke-width="0.5" opacity="0.3" x1="91.22606691679314" y1="104.7977180254167" x2="113.88619423404336" y2="130.21381277418487"></line><line stroke="#34C0EC" stroke-width="0.5" opacity="0.3" x1="129.89809931589235" y1="126.86103352793808" x2="113.88619423404336" y2="130.21381277418487"></line><circle r="2" fill="#34C0EC" opacity="0.4" cx="106.7327321057793" cy="138.69485121479826"></circle><line stroke="#34C0EC" stroke-width="0.5" opacity="0.3" x1="91.22606691679314" y1="104.7977180254167" x2="106.7327321057793" y2="138.69485121479826"></line><line stroke="#34C0EC" stroke-width="0.5" opacity="0.3" x1="113.88619423404336" y1="130.21381277418487" x2="106.7327321057793" y2="138.69485121479826"></line><circle r="2" fill="#34C0EC" opacity="0.4" cx="89.23645295092085" cy="153.48442514355028"></circle><line stroke="#34C0EC" stroke-width="0.5" opacity="0.3" x1="91.22606691679314" y1="104.7977180254167" x2="89.23645295092085" y2="153.48442514355028"></line><line stroke="#34C0EC" stroke-width="0.5" opacity="0.3" x1="106.7327321057793" y1="138.69485121479826" x2="89.23645295092085" y2="153.48442514355028"></line><circle r="2" fill="#34C0EC" opacity="0.4" cx="63.49887517363892" cy="136.26905863406503"></circle><line stroke="#34C0EC" stroke-width="0.5" opacity="0.3" x1="91.22606691679314" y1="104.7977180254167" x2="63.49887517363892" y2="136.26905863406503"></line><line stroke="#34C0EC" stroke-width="0.5" opacity="0.3" x1="89.23645295092085" y1="153.48442514355028" x2="63.49887517363892" y2="136.26905863406503"></line><circle r="2" fill="#34C0EC" opacity="0.4" cx="61.68185914287256" cy="122.30666483191877"></circle><line stroke="#34C0EC" stroke-width="0.5" opacity="0.3" x1="91.22606691679314" y1="104.7977180254167" x2="61.68185914287256" y2="122.30666483191877"></line><line stroke="#34C0EC" stroke-width="0.5" opacity="0.3" x1="63.49887517363892" y1="136.26905863406503" x2="61.68185914287256" y2="122.30666483191877"></line><circle r="2" fill="#34C0EC" opacity="0.4" cx="51.51203619922613" cy="111.93544494203832"></circle><line stroke="#34C0EC" stroke-width="0.5" opacity="0.3" x1="91.22606691679314" y1="104.7977180254167" x2="51.51203619922613" y2="111.93544494203832"></line><line stroke="#34C0EC" stroke-width="0.5" opacity="0.3" x1="61.68185914287256" y1="122.30666483191877" x2="51.51203619922613" y2="111.93544494203832"></line><circle r="2" fill="#34C0EC" opacity="0.4" cx="61.04364300187259" cy="105.96305926132788"></circle><line stroke="#34C0EC" stroke-width="0.5" opacity="0.3" x1="91.22606691679314" y1="104.7977180254167" x2="61.04364300187259" y2="105.96305926132788"></line><line stroke="#34C0EC" stroke-width="0.5" opacity="0.3" x1="51.51203619922613" y1="111.93544494203832" x2="61.04364300187259" y2="105.96305926132788"></line><circle r="2" fill="#34C0EC" opacity="0.4" cx="43.82301513198916" cy="100.79347451665946"></circle><line stroke="#34C0EC" stroke-width="0.5" opacity="0.3" x1="91.22606691679314" y1="104.7977180254167" x2="43.82301513198916" y2="100.79347451665946"></line><line stroke="#34C0EC" stroke-width="0.5" opacity="0.3" x1="61.04364300187259" y1="105.96305926132788" x2="43.82301513198916" y2="100.79347451665946"></line><circle r="2" fill="#34C0EC" opacity="0.4" cx="60.53057663137043" cy="92.89644314028011"></circle><line stroke="#34C0EC" stroke-width="0.5" opacity="0.3" x1="91.22606691679314" y1="104.7977180254167" x2="60.53057663137043" y2="92.89644314028011"></line><line stroke="#34C0EC" stroke-width="0.5" opacity="0.3" x1="43.82301513198916" y1="100.79347451665946" x2="60.53057663137043" y2="92.89644314028011"></line><circle r="2" fill="#34C0EC" opacity="0.4" cx="57.072949260338945" cy="77.61206184658995"></circle><line stroke="#34C0EC" stroke-width="0.5" opacity="0.3" x1="91.22606691679314" y1="104.7977180254167" x2="57.072949260338945" y2="77.61206184658995"></line><line stroke="#34C0EC" stroke-width="0.5" opacity="0.3" x1="60.53057663137043" y1="92.89644314028011" x2="57.072949260338945" y2="77.61206184658995"></line><circle r="2" fill="#34C0EC" opacity="0.4" cx="85.3696657151787" cy="73.58318289825439"></circle><line stroke="#34C0EC" stroke-width="0.5" opacity="0.3" x1="91.22606691679314" y1="104.7977180254167" x2="85.3696657151787" y2="73.58318289825439"></line><line stroke="#34C0EC" stroke-width="0.5" opacity="0.3" x1="57.072949260338945" y1="77.61206184658995" x2="85.3696657151787" y2="73.58318289825439"></line><circle r="2" fill="#34C0EC" opacity="0.4" cx="81.50879108935426" cy="60.79571274414"></circle><line stroke="#34C0EC" stroke-width="0.5" opacity="0.3" x1="91.22606691679314" y1="104.7977180254167" x2="81.50879108935426" y2="60.79571274414"></line><line stroke="#34C0EC" stroke-width="0.5" opacity="0.3" x1="85.3696657151787" y1="73.58318289825439" x2="81.50879108935426" y2="60.79571274414"></line><circle r="2" fill="#34C0EC" opacity="0.4" cx="105.07335784239683" cy="56.88496345299746"></circle><line stroke="#34C0EC" stroke-width="0.5" opacity="0.3" x1="91.22606691679314" y1="104.7977180254167" x2="105.07335784239683" y2="56.88496345299746"></line><line stroke="#34C0EC" stroke-width="0.5" opacity="0.3" x1="81.50879108935426" y1="60.79571274414" x2="105.07335784239683" y2="56.88496345299746"></line><circle r="2" fill="#34C0EC" opacity="0.4" cx="114.27652594603072" cy="82.83617063233245"></circle><line stroke="#34C0EC" stroke-width="0.5" opacity="0.3" x1="91.22606691679314" y1="104.7977180254167" x2="114.27652594603072" y2="82.83617063233245"></line><line stroke="#34C0EC" stroke-width="0.5" opacity="0.3" x1="105.07335784239683" y1="56.88496345299746" x2="114.27652594603072" y2="82.83617063233245"></line><circle r="2" fill="#34C0EC" opacity="0.4" cx="127.12575253852475" cy="92.0806131990982"></circle><line stroke="#34C0EC" stroke-width="0.5" opacity="0.3" x1="91.22606691679314" y1="104.7977180254167" x2="127.12575253852475" y2="92.0806131990982"></line><line stroke="#34C0EC" stroke-width="0.5" opacity="0.3" x1="114.27652594603072" y1="82.83617063233245" x2="127.12575253852475" y2="92.0806131990982"></line><circle r="2" fill="#34C0EC" opacity="0.4" cx="124.05060847779308" cy="86.30362412687111"></circle><line stroke="#34C0EC" stroke-width="0.5" opacity="0.3" x1="91.22606691679314" y1="104.7977180254167" x2="124.05060847779308" y2="86.30362412687111"></line><line stroke="#34C0EC" stroke-width="0.5" opacity="0.3" x1="127.12575253852475" y1="92.0806131990982" x2="124.05060847779308" y2="86.30362412687111"></line><circle r="2" fill="#34C0EC" opacity="0.4" cx="124.86298972711354" cy="115.33924497711064"></circle><line stroke="#34C0EC" stroke-width="0.5" opacity="0.3" x1="91.22606691679314" y1="104.7977180254167" x2="124.86298972711354" y2="115.33924497711064"></line><line stroke="#34C0EC" stroke-width="0.5" opacity="0.3" x1="124.05060847779308" y1="86.30362412687111" x2="124.86298972711354" y2="115.33924497711064"></line><line stroke="#34C0EC" stroke-width="0.5" opacity="0.3" x1="124.86298972711354" y1="115.33924497711064" x2="132.50151724697233" y2="111.38845543001324"></line></g>
</svg>