<svg xmlns="http://www.w3.org/2000/svg" viewBox="0 0 1200 400">
            <rect width="100%" height="100%" fill="#2F3D44"></rect>
            <g id="network"><circle r="2" fill="#FFFFFF" opacity="0.8" cx="93.16290131207312" cy="92.70246058376192"></circle><circle r="2" fill="#34C0EC" opacity="0.4" cx="70.81881071277492" cy="125.09112120217982"></circle><line stroke="#34C0EC" stroke-width="0.5" opacity="0.3" x1="93.16290131207312" y1="92.70246058376192" x2="70.81881071277492" y2="125.09112120217982"></line><circle r="2" fill="#34C0EC" opacity="0.4" cx="68.79009429731634" cy="133.70849289000785"></circle><line stroke="#34C0EC" stroke-width="0.5" opacity="0.3" x1="93.16290131207312" y1="92.70246058376192" x2="68.79009429731634" y2="133.70849289000785"></line><line stroke="#34C0EC" stroke-width="0.5" opacity="0.3" x1="70.81881071277492" y1="125.09112120217982" x2="68.79009429731634" y2="133.70849289000785"></line><circle r="2" fill="#34C0EC" opacity="0.4" cx="69.20442721132277" cy="114.4977022976244"></circle><line stroke="#34C0EC" stroke-width="0.5" opacity="0.3" x1="93.16290131207312" y1="92.70246058376192" x2="69.20442721132277" y2="114.4977022976244"></line><line stroke="#34C0EC" stroke-width="0.5" opacity="0.3" x1="68.79009429731634" y1="133.70849289000785" x2="69.20442721132277" y2="114.4977022976244"></line><circle r="2" fill="#34C0EC" opacity="0.4" cx="64.18777595096127" cy="101.53870569508155"></circle><line stroke="#34C0EC" stroke-width="0.5" opacity="0.3" x1="93.16290131207312" y1="92.70246058376192" x2="64.18777595096127" y2="101.53870569508155"></line><line stroke="#34C0EC" stroke-width="0.5" opacity="0.3" x1="69.20442721132277" y1="114.4977022976244" x2="64.18777595096127" y2="101.53870569508155"></line><circle r="2" fill="#34C0EC" opacity="0.4" cx="44.541222537225636" cy="93.24405891060835"></circle><line stroke="#34C0EC" stroke-width="0.5" opacity="0.3" x1="93.16290131207312" y1="92.70246058376192" x2="44.541222537225636" y2="93.24405891060835"></line><line stroke="#34C0EC" stroke-width="0.5" opacity="0.3" x1="64.18777595096127" y1="101.53870569508155" x2="44.541222537225636" y2="93.24405891060835"></line><circle r="2" fill="#34C0EC" opacity="0.4" cx="46.9278322142956" cy="74.86765938207444"></circle><line stroke="#34C0EC" stroke-width="0.5" opacity="0.3" x1="93.16290131207312" y1="92.70246058376192" x2="46.9278322142956" y2="74.86765938207444"></line><line stroke="#34C0EC" stroke-width="0.5" opacity="0.3" x1="44.541222537225636" y1="93.24405891060835" x2="46.9278322142956" y2="74.86765938207444"></line><circle r="2" fill="#34C0EC" opacity="0.4" cx="73.20470977928912" cy="69.56802235458225"></circle><line stroke="#34C0EC" stroke-width="0.5" opacity="0.3" x1="93.16290131207312" y1="92.70246058376192" x2="73.20470977928912" y2="69.56802235458225"></line><line stroke="#34C0EC" stroke-width="0.5" opacity="0.3" x1="46.9278322142956" y1="74.86765938207444" x2="73.20470977928912" y2="69.56802235458225"></line><circle r="2" fill="#34C0EC" opacity="0.4" cx="82.68268484595852" cy="50.891559974864805"></circle><line stroke="#34C0EC" stroke-width="0.5" opacity="0.3" x1="93.16290131207312" y1="92.70246058376192" x2="82.68268484595852" y2="50.891559974864805"></line><line stroke="#34C0EC" stroke-width="0.5" opacity="0.3" x1="73.20470977928912" y1="69.56802235458225" x2="82.68268484595852" y2="50.891559974864805"></line><circle r="2" fill="#34C0EC" opacity="0.4" cx="84.89252015977122" cy="43.44032781158107"></circle><line stroke="#34C0EC" stroke-width="0.5" opacity="0.3" x1="93.16290131207312" y1="92.70246058376192" x2="84.89252015977122" y2="43.44032781158107"></line><line stroke="#34C0EC" stroke-width="0.5" opacity="0.3" x1="82.68268484595852" y1="50.891559974864805" x2="84.89252015977122" y2="43.44032781158107"></line><circle r="2" fill="#34C0EC" opacity="0.4" cx="104.61614306247895" cy="44.24834292335433"></circle><line stroke="#34C0EC" stroke-width="0.5" opacity="0.3" x1="93.16290131207312" y1="92.70246058376192" x2="104.61614306247895" y2="44.24834292335433"></line><line stroke="#34C0EC" stroke-width="0.5" opacity="0.3" x1="84.89252015977122" y1="43.44032781158107" x2="104.61614306247895" y2="44.24834292335433"></line><circle r="2" fill="#34C0EC" opacity="0.4" cx="103.618224199498" cy="61.562444637713"></circle><line stroke="#34C0EC" stroke-width="0.5" opacity="0.3" x1="93.16290131207312" y1="92.70246058376192" x2="103.618224199498" y2="61.562444637713"></line><line stroke="#34C0EC" stroke-width="0.5" opacity="0.3" x1="104.61614306247895" y1="44.24834292335433" x2="103.618224199498" y2="61.562444637713"></line><circle r="2" fill="#34C0EC" opacity="0.4" cx="130.13029575338027" cy="73.40049873794307"></circle><line stroke="#34C0EC" stroke-width="0.5" opacity="0.3" x1="93.16290131207312" y1="92.70246058376192" x2="130.13029575338027" y2="73.40049873794307"></line><line stroke="#34C0EC" stroke-width="0.5" opacity="0.3" x1="103.618224199498" y1="61.562444637713" x2="130.13029575338027" y2="73.40049873794307"></line><circle r="2" fill="#34C0EC" opacity="0.4" cx="125.76265867598481" cy="86.40689164178436"></circle><line stroke="#34C0EC" stroke-width="0.5" opacity="0.3" x1="93.16290131207312" y1="92.70246058376192" x2="125.76265867598481" y2="86.40689164178436"></line><line stroke="#34C0EC" stroke-width="0.5" opacity="0.3" x1="130.13029575338027" y1="73.40049873794307" x2="125.76265867598481" y2="86.40689164178436"></line><circle r="2" fill="#34C0EC" opacity="0.4" cx="131.93059239959814" cy="80.30454683333346"></circle><line stroke="#34C0EC" stroke-width="0.5" opacity="0.3" x1="93.16290131207312" y1="92.70246058376192" x2="131.93059239959814" y2="80.30454683333346"></line><line stroke="#34C0EC" stroke-width="0.5" opacity="0.3" x1="125.76265867598481" y1="86.40689164178436" x2="131.93059239959814" y2="80.30454683333346"></line><circle r="2" fill="#34C0EC" opacity="0.4" cx="137.63871570611198" cy="111.3976328985253"></circle><line stroke="#34C0EC" stroke-width="0.5" opacity="0.3" x1="93.16290131207312" y1="92.70246058376192" x2="137.63871570611198" y2="111.3976328985253"></line><line stroke="#34C0EC" stroke-width="0.5" opacity="0.3" x1="131.93059239959814" y1="80.30454683333346" x2="137.63871570611198" y2="111.3976328985253"></line><circle r="2" fill="#34C0EC" opacity="0.4" cx="131.88408696076542" cy="107.06366782161948"></circle><line stroke="#34C0EC" stroke-width="0.5" opacity="0.3" x1="93.16290131207312" y1="92.70246058376192" x2="131.88408696076542" y2="107.06366782161948"></line><line stroke="#34C0EC" stroke-width="0.5" opacity="0.3" x1="137.63871570611198" y1="111.3976328985253" x2="131.88408696076542" y2="107.06366782161948"></line><circle r="2" fill="#34C0EC" opacity="0.4" cx="114.12092212288329" cy="134.33471420403072"></circle><line stroke="#34C0EC" stroke-width="0.5" opacity="0.3" x1="93.16290131207312" y1="92.70246058376192" x2="114.12092212288329" y2="134.33471420403072"></line><line stroke="#34C0EC" stroke-width="0.5" opacity="0.3" x1="131.88408696076542" y1="107.06366782161948" x2="114.12092212288329" y2="134.33471420403072"></line><circle r="2" fill="#34C0EC" opacity="0.4" cx="99.82294437253019" cy="139.13128500964783"></circle><line stroke="#34C0EC" stroke-width="0.5" opacity="0.3" x1="93.16290131207312" y1="92.70246058376192" x2="99.82294437253019" y2="139.13128500964783"></line><line stroke="#34C0EC" stroke-width="0.5" opacity="0.3" x1="114.12092212288329" y1="134.33471420403072" x2="99.82294437253019" y2="139.13128500964783"></line><circle r="2" fill="#34C0EC" opacity="0.4" cx="102.14334368501736" cy="130.80882572634317"></circle><line stroke="#34C0EC" stroke-width="0.5" opacity="0.3" x1="93.16290131207312" y1="92.70246058376192" x2="102.14334368501736" y2="130.80882572634317"></line><line stroke="#34C0EC" stroke-width="0.5" opacity="0.3" x1="99.82294437253019" y1="139.13128500964783" x2="102.14334368501736" y2="130.80882572634317"></line><line stroke="#34C0EC" stroke-width="0.5" opacity="0.3" x1="102.14334368501736" y1="130.80882572634317" x2="70.81881071277492" y2="125.09112120217982"></line></g>
        </svg>